<?xml version="1.0" encoding="UTF-8"?>
<svg id="Icon" xmlns="http://www.w3.org/2000/svg" version="1.1" viewBox="0 0 32 32">
  <!-- Generator: Adobe Illustrator 29.1.0, SVG Export Plug-In . SVG Version: 2.1.0 Build 142)  -->
  <defs>
    <style>
      .st0 {
        fill: none;
      }

      .st1 {
        fill: #fff;
      }
    </style>
  </defs>
  <path class="st1" d="M10,8h12c4.4,0,8,3.6,8,8s-3.6,8-8,8h-12c-4.4,0-8-3.6-8-8S5.6,8,10,8ZM22,22c3.3,0,6-2.7,6-6s-2.7-6-6-6h-12c-3.3,0-6,2.7-6,6s2.7,6,6,6h12ZM19,16c0,1.7,1.3,3,3,3s3-1.3,3-3-1.3-3-3-3-3,1.3-3,3Z"/>
  <rect id="__x3C_Transparent_Rectangle_x3E_" class="st0" width="32" height="32"/>
</svg>